<?xml version="1.0" encoding="UTF-8"?>
<svg width="140px" height="45px" viewBox="0 0 140 45" version="1.1" xmlns="http://www.w3.org/2000/svg" xmlns:xlink="http://www.w3.org/1999/xlink">
    <!-- Generator: Sketch 61 (89581) - https://sketch.com -->
    <title>logo</title>
    <desc>Created with Sketch.</desc>
    <g id="Page-1" stroke="none" stroke-width="1" fill="none" fill-rule="evenodd">
        <g id="logo" fill="#DA291C">
            <path d="M34.018,7.09 L29.195,11.9 C26.8861986,8.73640831 23.2114455,6.85820117 19.295,6.84 C12.8608827,6.84 7.645,12.0558827 7.645,18.49 C7.645,24.9241173 12.8608827,30.14 19.295,30.14 C23.3556394,30.1327601 27.1899822,28.2688178 29.704,25.08 L34.274,29.89 C30.614623,34.4026876 25.1048582,37.0106209 19.295,36.9802667 C8.379,36.9802667 0.002,28.62 0.002,18.49 C0.002,8.36 8.379,9.09079236e-13 19.295,9.09079236e-13 C25.0424258,-0.0713383614 30.4917197,2.55246429 34.02,7.09 M39.047,0.76 L46.663,0.76 L46.663,36.22 L39.047,36.22 L39.047,0.76 Z M110.532,44.9 L110.532,41.1 L139.726,41.1 L139.726,44.9 L110.53,44.9 L110.532,44.9 Z M78.023,0.76 L78.023,7.6 L59.489,7.6 L59.489,16.97 L73.835,16.97 L73.835,23.81 L59.489,23.81 L59.489,36.22 L51.873,36.22 L51.873,0.76 L78.021,0.76 L78.023,0.76 Z M90.323,9.62 L86,21.28 L94.632,21.28 L90.323,9.62 Z M83.468,27.86 L80.422,36.22 L72.298,36.22 L86.261,0.76 L94.385,0.76 L108.347,36.22 L100.224,36.22 L97.177,27.86 L83.463,27.86 L83.468,27.86 Z M126.021,7.6 L118.151,7.6 L118.151,16.97 L126.021,16.97 C127.272237,17.0307647 128.494137,16.578599 129.404409,15.7179643 C130.314681,14.8573296 130.834581,13.6626767 130.844,12.41 C130.886976,11.1193346 130.392211,9.86875013 129.477836,8.95683919 C128.56346,8.04492826 127.311545,7.5535402 126.021,7.6 M110.535,0.76 L126.274,0.76 C133.383,0.76 138.46,5.93 138.46,12.41 C138.505397,16.8021362 136.041544,20.835448 132.113,22.8 L139.73,36.22 L131.6,36.22 L124.745,23.81 L118.145,23.81 L118.145,36.22 L110.53,36.22 L110.53,0.76 L110.535,0.76 Z"></path>
        </g>
    </g>
</svg>